<svg width="30" height="30" viewBox="0 0 30 30" fill="none" xmlns="http://www.w3.org/2000/svg">
<path d="M27.7592 9.34751L18.48 1.92417C16.6667 0.479172 13.8333 0.465006 12.0342 1.91001L2.75499 9.34751C1.42332 10.41 0.615822 12.535 0.899155 14.2067L2.68415 24.8883C3.09499 27.2825 5.31915 29.1667 7.74165 29.1667H22.7583C25.1525 29.1667 27.4192 27.24 27.83 24.8742L29.615 14.1925C29.87 12.535 29.0625 10.41 27.7592 9.34751ZM16.3125 23.5C16.3125 24.0808 15.8308 24.5625 15.25 24.5625C14.6692 24.5625 14.1875 24.0808 14.1875 23.5V19.25C14.1875 18.6692 14.6692 18.1875 15.25 18.1875C15.8308 18.1875 16.3125 18.6692 16.3125 19.25V23.5Z" fill="white" fill-opacity="0.6"/>
</svg>
