<svg width="36" height="36" viewBox="0 0 36 36" fill="none" xmlns="http://www.w3.org/2000/svg">
<g opacity="0.7">
<path opacity="0.5" d="M18 33.6771C9.35204 33.6771 2.32288 26.6479 2.32288 18C2.32288 9.35207 9.35204 2.32291 18 2.32291C26.6479 2.32291 33.677 9.35207 33.677 18C33.677 26.6479 26.6479 33.6771 18 33.6771ZM18 4.51041C10.5625 4.51041 4.51038 10.5625 4.51038 18C4.51038 25.4375 10.5625 31.4896 18 31.4896C25.4375 31.4896 31.4895 25.4375 31.4895 18C31.4895 10.5625 25.4375 4.51041 18 4.51041Z" fill="white"/>
<path d="M23.8333 19.0938H12.1666C11.5687 19.0938 11.0729 18.5979 11.0729 18C11.0729 17.4021 11.5687 16.9062 12.1666 16.9062H23.8333C24.4312 16.9062 24.927 17.4021 24.927 18C24.927 18.5979 24.4312 19.0938 23.8333 19.0938Z" fill="white"/>
<path d="M18 24.9271C17.4021 24.9271 16.9062 24.4312 16.9062 23.8333V12.1667C16.9062 11.5687 17.4021 11.0729 18 11.0729C18.5979 11.0729 19.0938 11.5687 19.0938 12.1667V23.8333C19.0938 24.4312 18.5979 24.9271 18 24.9271Z" fill="white"/>
</g>
</svg>
