<svg width="43" height="42" viewBox="0 0 43 42" fill="none" xmlns="http://www.w3.org/2000/svg">
<rect x="0.5" width="42" height="42" rx="21" fill="url(#paint0_linear_10_199)"/>
<path d="M21.5 31.75C15.57 31.75 10.75 26.93 10.75 21C10.75 15.07 15.57 10.25 21.5 10.25C27.43 10.25 32.25 15.07 32.25 21C32.25 26.93 27.43 31.75 21.5 31.75ZM21.5 11.75C16.4 11.75 12.25 15.9 12.25 21C12.25 26.1 16.4 30.25 21.5 30.25C26.6 30.25 30.75 26.1 30.75 21C30.75 15.9 26.6 11.75 21.5 11.75Z" fill="white"/>
<path d="M23.7 21.75H18.28C17.87 21.75 17.53 21.41 17.53 21V16.67C17.53 16.26 17.87 15.92 18.28 15.92H23.7C25.25 15.92 26.62 17.28 26.62 18.84C26.62 20.44 25.31 21.75 23.7 21.75ZM19.03 20.25H23.7C24.48 20.25 25.12 19.61 25.12 18.83C25.12 18.17 24.5 17.41 23.7 17.41H19.03V20.25Z" fill="white"/>
<path d="M24.47 26.08H18.28C17.87 26.08 17.53 25.74 17.53 25.33V21C17.53 20.59 17.87 20.25 18.28 20.25H24.47C26.25 20.25 27.7 21.56 27.7 23.17C27.7 24.78 26.25 26.08 24.47 26.08ZM19.03 24.58H24.47C25.42 24.58 26.2 23.94 26.2 23.16C26.2 22.38 25.43 21.74 24.47 21.74H19.03V24.58Z" fill="white"/>
<path d="M22.0699 28.25C21.6599 28.25 21.3199 27.91 21.3199 27.5V25.33C21.3199 24.92 21.6599 24.58 22.0699 24.58C22.4799 24.58 22.8199 24.92 22.8199 25.33V27.5C22.8199 27.91 22.4899 28.25 22.0699 28.25Z" fill="white"/>
<path d="M19.37 28.25C18.96 28.25 18.62 27.91 18.62 27.5V25.33C18.62 24.92 18.96 24.58 19.37 24.58C19.78 24.58 20.12 24.92 20.12 25.33V27.5C20.12 27.91 19.78 28.25 19.37 28.25Z" fill="white"/>
<path d="M22.0699 17.42C21.6599 17.42 21.3199 17.08 21.3199 16.67V14.5C21.3199 14.09 21.6599 13.75 22.0699 13.75C22.4799 13.75 22.8199 14.09 22.8199 14.5V16.67C22.8199 17.08 22.4899 17.42 22.0699 17.42Z" fill="white"/>
<path d="M19.37 17.42C18.96 17.42 18.62 17.08 18.62 16.67V14.5C18.62 14.09 18.96 13.75 19.37 13.75C19.78 13.75 20.12 14.09 20.12 14.5V16.67C20.12 17.08 19.78 17.42 19.37 17.42Z" fill="white"/>
<path d="M20.34 17.42H16.55C16.14 17.42 15.8 17.08 15.8 16.67C15.8 16.26 16.14 15.92 16.55 15.92H20.34C20.75 15.92 21.09 16.26 21.09 16.67C21.09 17.08 20.76 17.42 20.34 17.42Z" fill="white"/>
<path d="M20.34 26.08H16.55C16.14 26.08 15.8 25.74 15.8 25.33C15.8 24.92 16.14 24.58 16.55 24.58H20.34C20.75 24.58 21.09 24.92 21.09 25.33C21.09 25.74 20.76 26.08 20.34 26.08Z" fill="white"/>
<defs>
<linearGradient id="paint0_linear_10_199" x1="11.9545" y1="-11.4545" x2="35.8182" y2="48.6818" gradientUnits="userSpaceOnUse">
<stop stop-color="#8CF1C7"/>
<stop offset="1" stop-color="#8CF1C7" stop-opacity="0"/>
</linearGradient>
</defs>
</svg>
