<svg width="35" height="35" viewBox="0 0 35 35" fill="none" xmlns="http://www.w3.org/2000/svg">
<path d="M4.83544 20.0974L5.56562 19.9261L4.83544 20.0974ZM4.83544 12.1392L5.56562 12.3104L4.83544 12.1392ZM27.4011 12.1392L28.1313 11.9679L27.4011 12.1392ZM27.4011 20.0974L28.1313 20.2686L27.4011 20.0974ZM20.0974 27.4011L19.9261 26.6709L20.0974 27.4011ZM12.1392 27.4011L11.9679 28.1313L12.1392 27.4011ZM12.1392 4.83544L11.9679 4.10526V4.10526L12.1392 4.83544ZM20.0974 4.83544L20.2686 4.10525L20.0974 4.83544ZM30.0947 31.1553C30.3876 31.4482 30.8624 31.4482 31.1553 31.1553C31.4482 30.8624 31.4482 30.3876 31.1553 30.0947L30.0947 31.1553ZM5.56562 19.9261C4.97813 17.4215 4.97813 14.815 5.56562 12.3104L4.10526 11.9679C3.46491 14.6978 3.46491 17.5388 4.10526 20.2686L5.56562 19.9261ZM26.6709 12.3104C27.2584 14.815 27.2584 17.4215 26.6709 19.9261L28.1313 20.2686C28.7716 17.5388 28.7716 14.6978 28.1313 11.9679L26.6709 12.3104ZM19.9261 26.6709C17.4215 27.2584 14.815 27.2584 12.3104 26.6709L11.9679 28.1313C14.6978 28.7716 17.5388 28.7716 20.2686 28.1313L19.9261 26.6709ZM12.3104 5.56562C14.815 4.97813 17.4215 4.97813 19.9261 5.56562L20.2686 4.10525C17.5388 3.46491 14.6978 3.46492 11.9679 4.10526L12.3104 5.56562ZM12.3104 26.6709C8.96376 25.8859 6.35064 23.2728 5.56562 19.9261L4.10526 20.2686C5.02038 24.17 8.06657 27.2162 11.9679 28.1313L12.3104 26.6709ZM20.2686 28.1313C24.17 27.2162 27.2162 24.17 28.1313 20.2686L26.6709 19.9261C25.8859 23.2728 23.2728 25.8859 19.9261 26.6709L20.2686 28.1313ZM19.9261 5.56562C23.2728 6.35064 25.8859 8.96376 26.6709 12.3104L28.1313 11.9679C27.2162 8.06657 24.17 5.02038 20.2686 4.10525L19.9261 5.56562ZM11.9679 4.10526C8.06657 5.02038 5.02038 8.06656 4.10526 11.9679L5.56562 12.3104C6.35064 8.96376 8.96376 6.35064 12.3104 5.56562L11.9679 4.10526ZM24.7501 25.8107L30.0947 31.1553L31.1553 30.0947L25.8107 24.7501L24.7501 25.8107Z" fill="white" fill-opacity="0.5"/>
</svg>
