<svg width="20" height="20" viewBox="0 0 20 20" fill="none" xmlns="http://www.w3.org/2000/svg">
<path d="M18.3334 10.5167V12.2333C18.3334 12.7 17.95 13.0833 17.475 13.0833H15.8667C14.9667 13.0833 14.1417 12.425 14.0667 11.525C14.0167 11 14.2167 10.5083 14.5667 10.1667C14.875 9.85 15.3 9.66667 15.7667 9.66667H17.475C17.95 9.66667 18.3334 10.05 18.3334 10.5167Z" fill="white"/>
<path d="M12.8166 11.6333C12.7416 10.7583 13.0583 9.9 13.6916 9.275C14.225 8.73333 14.9666 8.41667 15.7666 8.41667H16.2416C16.475 8.41667 16.6666 8.225 16.6333 7.99167C16.4083 6.375 15.0083 5.125 13.3333 5.125H4.99996C3.15829 5.125 1.66663 6.61667 1.66663 8.45833V14.2917C1.66663 16.1333 3.15829 17.625 4.99996 17.625H13.3333C15.0166 17.625 16.4083 16.375 16.6333 14.7583C16.6666 14.525 16.475 14.3333 16.2416 14.3333H15.8666C14.2833 14.3333 12.95 13.15 12.8166 11.6333ZM10.8333 9.91667H5.83329C5.49163 9.91667 5.20829 9.64167 5.20829 9.29167C5.20829 8.94167 5.49163 8.66667 5.83329 8.66667H10.8333C11.175 8.66667 11.4583 8.95 11.4583 9.29167C11.4583 9.63333 11.175 9.91667 10.8333 9.91667Z" fill="white"/>
<path d="M11.8416 3.31667C12.0583 3.54167 11.8666 3.875 11.55 3.875H5.02496C4.11663 3.875 3.26663 4.14167 2.5583 4.6C2.2333 4.80833 1.79163 4.58333 1.94996 4.225C2.41663 3.13333 3.5083 2.375 4.76663 2.375H9.44996C10.4166 2.375 11.275 2.71667 11.8416 3.31667Z" fill="white"/>
</svg>
